# Blender v2.78 (sub 0) OBJ File: '20.blend'
# www.blender.org
mtllib Pear_01.mtl
o pear_Circle.002
v 0.000000 0.534658 -3.844809
v -2.718690 0.534658 -2.718690
v -3.844809 0.534658 0.000000
v -2.718690 0.534658 2.718690
v 0.000000 0.534658 3.844809
v 2.718691 0.534658 2.718690
v 3.844809 0.534658 -0.000000
v 2.718691 0.534658 -2.718690
v 0.000000 3.009425 -3.367159
v -2.380941 3.009425 -2.380941
v -3.367159 3.009425 0.000000
v -2.380941 3.009425 2.380941
v 0.000000 3.009425 3.367159
v 2.380941 3.009425 2.380940
v 3.367159 3.009425 -0.000000
v 2.380941 3.009425 -2.380941
v 2.442488 -0.921961 -2.442487
v 3.454199 -0.921961 -0.000000
v 2.442488 -0.921961 2.442487
v 0.000000 -0.921961 3.454199
v -2.442487 -0.921961 2.442487
v -3.454199 -0.921961 0.000000
v -2.442487 -0.921961 -2.442487
v 0.000000 -0.921961 -3.454199
v -0.000000 8.632085 -1.544637
v -1.092224 8.632085 -1.092224
v -1.544637 8.632085 0.000000
v -1.092224 8.632085 1.092224
v 0.000000 8.632085 1.544637
v 1.092224 8.632085 1.092223
v 1.544637 8.632085 -0.000000
v 1.092224 8.632085 -1.092223
v 0.000000 9.318376 -1.016621
v -0.718860 9.318376 -0.718860
v -1.016621 9.318376 0.000000
v -0.718860 9.318376 0.718860
v 0.000000 9.318376 1.016621
v 0.718860 9.318376 0.718860
v 1.016621 9.318376 -0.000000
v 0.718860 9.318376 -0.718860
v 0.000000 9.603696 -0.200774
v -0.141968 9.603696 -0.141969
v -0.200774 9.603696 -0.000000
v -0.141968 9.603696 0.141968
v 0.000000 9.603696 0.200774
v 0.141969 9.603696 0.141968
v 0.200774 9.603696 -0.000000
v 0.141969 9.603696 -0.141969
v -0.000000 6.193748 -1.800949
v -0.000000 4.478350 -2.451025
v -1.733136 4.478350 -1.733136
v -1.273463 6.193748 -1.273463
v -2.451025 4.478350 0.000000
v -1.800949 6.193748 0.000000
v -1.733136 4.478350 1.733136
v -1.273463 6.193748 1.273463
v 0.000000 4.478350 2.451025
v 0.000000 6.193748 1.800949
v 1.733137 4.478350 1.733136
v 1.273464 6.193748 1.273463
v 2.451025 4.478350 -0.000000
v 1.800949 6.193748 -0.000000
v 1.733137 4.478350 -1.733136
v 1.273464 6.193748 -1.273463
v 1.398943 -1.679142 -1.398942
v 1.978403 -1.679142 -0.000000
v 1.398943 -1.679142 1.398942
v 0.000000 -1.679142 1.978403
v -1.398942 -1.679142 1.398942
v -1.978403 -1.679142 0.000000
v -1.398942 -1.679142 -1.398942
v 0.000000 -1.679142 -1.978403
v 0.658912 -1.841631 -0.658912
v 0.931842 -1.841631 -0.000000
v 0.658912 -1.841631 0.658911
v 0.000000 -1.841631 0.931842
v -0.658912 -1.841631 0.658912
v -0.931842 -1.841631 0.000000
v -0.658912 -1.841631 -0.658912
v 0.000000 -1.841631 -0.931842
v 0.000000 -1.841631 -0.000000
v 0.000000 9.789034 -0.149481
v -0.126626 9.785043 -0.097372
v -0.179076 9.775406 0.028430
v -0.126626 9.765768 0.154233
v 0.000000 9.761776 0.206342
v 0.126626 9.765768 0.154233
v 0.179076 9.775406 0.028430
v 0.126626 9.785043 -0.097372
v 0.000000 10.798382 0.238712
v -0.163560 10.774837 0.302239
v -0.231309 10.718003 0.455607
v -0.163560 10.661170 0.608975
v 0.000000 10.637626 0.672502
v 0.163560 10.661170 0.608975
v 0.231309 10.718003 0.455607
v 0.163560 10.774837 0.302239
v 0.000000 10.718003 0.455607
v -0.180018 10.286962 0.259552
v -0.127292 10.259851 0.382434
v 0.000000 10.325300 0.085772
v -0.127292 10.314071 0.136671
v 0.127292 10.314071 0.136671
v 0.127292 10.259851 0.382434
v 0.180018 10.286962 0.259552
v 0.000000 10.248620 0.433333
vn 0.9095 0.1755 -0.3767
vn 0.3767 0.1755 0.9095
vn -0.9095 0.1755 0.3767
vn -0.3767 0.1755 -0.9095
vn 0.3767 0.1755 -0.9095
vn 0.9095 0.1755 0.3767
vn -0.3767 0.1755 0.9095
vn -0.9095 0.1755 -0.3767
vn 0.3809 0.0967 -0.9196
vn -0.3316 0.4993 -0.8005
vn 0.9196 0.0967 -0.3809
vn 0.3809 0.0967 0.9196
vn -0.9196 0.0967 0.3809
vn 0.8968 -0.2405 -0.3715
vn 0.9196 0.0967 0.3809
vn -0.3809 0.0967 0.9196
vn 0.8005 0.4993 -0.3316
vn 0.3316 0.4993 0.8005
vn -0.8005 0.4993 0.3316
vn 0.3316 0.4993 -0.8005
vn -0.9196 0.0967 -0.3809
vn 0.8005 0.4993 0.3316
vn -0.3316 0.4993 0.8005
vn -0.8005 0.4993 -0.3316
vn -0.7530 0.5794 -0.3119
vn 0.7530 0.5794 -0.3119
vn 0.3119 0.5794 0.7530
vn -0.7530 0.5794 0.3119
vn -0.3119 0.5794 -0.7530
vn 0.3119 0.5794 -0.7530
vn 0.7530 0.5794 0.3119
vn -0.3119 0.5794 0.7530
vn 0.1355 0.9352 -0.3271
vn 0.3271 0.9352 0.1355
vn -0.1355 0.9352 0.3271
vn -0.3271 0.9352 -0.1355
vn 0.3271 0.9352 -0.1355
vn 0.1355 0.9352 0.3271
vn -0.3271 0.9352 0.1355
vn -0.1355 0.9352 -0.3271
vn -0.3612 0.3304 -0.8720
vn -0.8720 0.3304 -0.3612
vn -0.8720 0.3304 0.3612
vn -0.3612 0.3304 0.8720
vn 0.3612 0.3304 0.8720
vn 0.8720 0.3304 0.3612
vn 0.8720 0.3304 -0.3612
vn 0.3612 0.3304 -0.8720
vn -0.3809 0.0967 -0.9196
vn 0.3715 -0.2405 0.8968
vn -0.8968 -0.2405 0.3715
vn -0.3715 -0.2405 -0.8968
vn 0.3715 -0.2405 -0.8968
vn 0.8968 -0.2405 0.3715
vn -0.3715 -0.2405 0.8968
vn -0.8968 -0.2405 -0.3715
vn 0.1858 -0.8742 0.4485
vn -0.4485 -0.8742 0.1858
vn 0.4485 -0.8742 -0.1858
vn 0.4485 -0.8742 0.1858
vn 0.1858 -0.8742 -0.4485
vn -0.1858 -0.8742 -0.4485
vn -0.1858 -0.8742 0.4485
vn -0.4485 -0.8742 -0.1858
vn 0.0634 -0.9862 -0.1531
vn 0.1531 -0.9862 0.0634
vn 0.0634 -0.9862 0.1531
vn -0.1531 -0.9862 -0.0634
vn -0.0634 -0.9862 -0.1531
vn 0.1531 -0.9862 -0.0634
vn -0.0634 -0.9862 0.1531
vn -0.1531 -0.9862 0.0634
vn 0.0000 -1.0000 0.0000
vn -0.9213 0.0553 0.3848
vn -0.3728 0.2493 -0.8938
vn 0.3728 0.2493 -0.8938
vn 0.9213 0.0553 0.3848
vn -0.3819 -0.0331 0.9236
vn -0.9118 0.1727 -0.3726
vn 0.9118 0.1727 -0.3726
vn 0.3819 -0.0331 0.9236
vn -0.9119 -0.2580 0.3193
vn -0.3802 0.2853 -0.8798
vn 0.3802 0.2853 -0.8798
vn 0.9119 -0.2580 0.3193
vn -0.3698 -0.4842 0.7929
vn -0.9218 0.0645 -0.3824
vn 0.9218 0.0645 -0.3824
vn 0.3698 -0.4842 0.7929
vn 0.0000 0.9377 0.3475
vn 0.3659 -0.3919 0.8441
vn 0.9173 0.1613 -0.3641
vn -0.9173 0.1613 -0.3641
vn -0.3659 -0.3919 0.8441
vn 0.9167 -0.1673 0.3630
vn 0.3677 0.3747 -0.8511
vn -0.3677 0.3747 -0.8511
vn -0.9167 -0.1673 0.3630
usemtl 4CAF50
s off
f 7//1 8//1 16//1 15//1
f 5//2 6//2 14//2 13//2
f 3//3 4//3 12//3 11//3
f 1//4 2//4 10//4 9//4
f 8//5 1//5 9//5 16//5
f 6//6 7//6 15//6 14//6
f 4//7 5//7 13//7 12//7
f 2//8 3//8 11//8 10//8
f 64//9 49//9 25//9 32//9
f 9//10 10//10 51//10 50//10
f 62//11 64//11 32//11 31//11
f 58//12 60//12 30//12 29//12
f 54//13 56//13 28//13 27//13
f 8//14 7//14 18//14 17//14
f 60//15 62//15 31//15 30//15
f 56//16 58//16 29//16 28//16
f 15//17 16//17 63//17 61//17
f 13//18 14//18 59//18 57//18
f 11//19 12//19 55//19 53//19
f 16//20 9//20 50//20 63//20
f 52//21 54//21 27//21 26//21
f 14//22 15//22 61//22 59//22
f 12//23 13//23 57//23 55//23
f 10//24 11//24 53//24 51//24
f 26//25 27//25 35//25 34//25
f 31//26 32//26 40//26 39//26
f 29//27 30//27 38//27 37//27
f 27//28 28//28 36//28 35//28
f 25//29 26//29 34//29 33//29
f 32//30 25//30 33//30 40//30
f 30//31 31//31 39//31 38//31
f 28//32 29//32 37//32 36//32
f 40//33 33//33 41//33 48//33
f 38//34 39//34 47//34 46//34
f 36//35 37//35 45//35 44//35
f 34//36 35//36 43//36 42//36
f 39//37 40//37 48//37 47//37
f 37//38 38//38 46//38 45//38
f 35//39 36//39 44//39 43//39
f 33//40 34//40 42//40 41//40
f 52//41 49//41 50//41 51//41
f 54//42 52//42 51//42 53//42
f 56//43 54//43 53//43 55//43
f 58//44 56//44 55//44 57//44
f 60//45 58//45 57//45 59//45
f 62//46 60//46 59//46 61//46
f 64//47 62//47 61//47 63//47
f 49//48 64//48 63//48 50//48
f 49//49 52//49 26//49 25//49
f 6//50 5//50 20//50 19//50
f 4//51 3//51 22//51 21//51
f 2//52 1//52 24//52 23//52
f 1//53 8//53 17//53 24//53
f 7//54 6//54 19//54 18//54
f 5//55 4//55 21//55 20//55
f 3//56 2//56 23//56 22//56
f 19//57 20//57 68//57 67//57
f 21//58 22//58 70//58 69//58
f 17//59 18//59 66//59 65//59
f 18//60 19//60 67//60 66//60
f 24//61 17//61 65//61 72//61
f 23//62 24//62 72//62 71//62
f 20//63 21//63 69//63 68//63
f 22//64 23//64 71//64 70//64
f 72//65 65//65 73//65 80//65
f 66//66 67//66 75//66 74//66
f 67//67 68//67 76//67 75//67
f 70//68 71//68 79//68 78//68
f 71//69 72//69 80//69 79//69
f 65//70 66//70 74//70 73//70
f 68//71 69//71 77//71 76//71
f 69//72 70//72 78//72 77//72
f 77//73 78//73 81//73
f 80//73 73//73 81//73
f 74//73 75//73 81//73
f 75//73 76//73 81//73
f 78//73 79//73 81//73
f 79//73 80//73 81//73
f 73//73 74//73 81//73
f 76//73 77//73 81//73
usemtl 795548
f 43//74 44//74 85//74 84//74
f 41//75 42//75 83//75 82//75
f 48//76 41//76 82//76 89//76
f 46//77 47//77 88//77 87//77
f 44//78 45//78 86//78 85//78
f 42//79 43//79 84//79 83//79
f 47//80 48//80 89//80 88//80
f 45//81 46//81 87//81 86//81
f 99//82 100//82 93//82 92//82
f 101//83 102//83 91//83 90//83
f 103//84 101//84 90//84 97//84
f 104//85 105//85 96//85 95//85
f 100//86 106//86 94//86 93//86
f 102//87 99//87 92//87 91//87
f 105//88 103//88 97//88 96//88
f 106//89 104//89 95//89 94//89
f 96//90 97//90 98//90
f 94//90 95//90 98//90
f 92//90 93//90 98//90
f 90//90 91//90 98//90
f 97//90 90//90 98//90
f 95//90 96//90 98//90
f 93//90 94//90 98//90
f 91//90 92//90 98//90
f 86//91 87//91 104//91 106//91
f 88//92 89//92 103//92 105//92
f 83//93 84//93 99//93 102//93
f 85//94 86//94 106//94 100//94
f 87//95 88//95 105//95 104//95
f 89//96 82//96 101//96 103//96
f 82//97 83//97 102//97 101//97
f 84//98 85//98 100//98 99//98
