# Blender v2.78 (sub 0) OBJ File: '3.blend'
# www.blender.org
mtllib Peanut_Butter___Jelly_01.mtl
o Circle.002_Circle.003
v 0.055015 1.288489 -6.657346
v -2.220117 1.288489 -5.714954
v -3.162508 1.288489 -3.439822
v -2.220117 1.288489 -1.164690
v 0.055016 1.288489 -0.222299
v 2.330148 1.288489 -1.164690
v 3.272538 1.288489 -3.439822
v 2.330148 1.288489 -5.714954
v 0.055015 7.098533 -6.657346
v -2.220117 7.098533 -5.714954
v -3.162508 7.098533 -3.439822
v -2.220117 7.098533 -1.164690
v 0.055016 7.098533 -0.222299
v 2.330148 7.098533 -1.164690
v 3.272538 7.098533 -3.439822
v 2.330148 7.098533 -5.714954
v 0.055015 0.072950 -6.022937
v -1.771523 0.072950 -5.266360
v -2.528100 0.072950 -3.439822
v -1.771523 0.072950 -1.613284
v 0.055016 0.072950 -0.856707
v 1.881554 0.072950 -1.613284
v 2.638130 0.072950 -3.439822
v 1.881554 0.072950 -5.266360
v 0.055015 0.072950 -5.277509
v -1.244425 0.072950 -4.739262
v -1.782671 0.072950 -3.439822
v -1.244425 0.072950 -2.140382
v 0.055016 0.072950 -1.602136
v 1.354456 0.072950 -2.140382
v 1.892702 0.072950 -3.439822
v 1.354456 0.072950 -4.739262
v 0.055015 0.324840 -4.935295
v -1.002444 0.324840 -4.497282
v -1.440459 0.324840 -3.439822
v -1.002444 0.324840 -2.382362
v 0.055016 0.324840 -1.944348
v 1.112475 0.324840 -2.382363
v 1.550489 0.324840 -3.439822
v 1.112475 0.324840 -4.497282
v 0.055015 0.324840 -3.439822
v 2.712090 8.406631 -3.439822
v 1.933851 8.406631 -1.560987
v 0.055016 8.406631 -0.782748
v -1.823820 8.406631 -1.560987
v -2.602059 8.406631 -3.439822
v -1.823820 8.406631 -5.318657
v 0.055015 8.406631 -6.096897
v 1.933851 8.406631 -5.318657
v 0.055015 6.206892 -6.657346
v -2.220117 6.206892 -5.714954
v 2.330148 6.206892 -5.714954
v 2.330148 6.206892 -1.164690
v 3.272538 6.206892 -3.439822
v -2.220117 6.206892 -1.164690
v 0.055016 6.206892 -0.222299
v -3.162508 6.206892 -3.439822
v 0.055015 1.809262 -6.657346
v 2.330148 1.809262 -5.714954
v 2.330148 1.809262 -1.164690
v -2.220117 1.809262 -1.164690
v -2.220117 1.809262 -5.714954
v 3.272538 1.809262 -3.439822
v 0.055016 1.809262 -0.222299
v -3.162508 1.809262 -3.439822
v 2.289067 8.406631 -3.439822
v 1.634729 8.406631 -1.860109
v 0.055016 8.406631 -1.205770
v -1.524698 8.406631 -1.860109
v -2.179037 8.406631 -3.439822
v -1.524698 8.406631 -5.019536
v 0.055015 8.406631 -5.673874
v 1.634729 8.406631 -5.019536
v 2.289067 9.436461 -3.439822
v 1.634729 9.436461 -1.860109
v 0.055016 9.436461 -1.205770
v -1.524698 9.436461 -1.860109
v -2.179037 9.436461 -3.439822
v -1.524698 9.436461 -5.019536
v 0.055015 9.436461 -5.673874
v 1.634729 9.436461 -5.019536
v 1.712804 9.995428 -5.097610
v 0.055015 9.995428 -5.784289
v -1.602773 9.995428 -5.097610
v -2.289452 9.995428 -3.439822
v -1.602773 9.995428 -1.782034
v 0.055016 9.995428 -1.095355
v 1.712804 9.995428 -1.782034
v 2.399482 9.995428 -3.439822
v 2.665258 8.497860 -3.439822
v 1.900737 8.497860 -1.594101
v 0.055016 8.497860 -0.829579
v -1.790705 8.497860 -1.594101
v -2.555228 8.497860 -3.439822
v -1.790705 8.497860 -5.285542
v 0.055015 8.497860 -6.050066
v 1.900737 8.497860 -5.285542
v 2.665258 10.075508 -3.439822
v 1.900737 10.075508 -1.594101
v 0.055016 10.075508 -0.829579
v -1.790705 10.075508 -1.594101
v -2.555228 10.075508 -3.439822
v -1.790705 10.075508 -5.285542
v 0.055015 10.075508 -6.050066
v 1.900737 10.075508 -5.285542
v 2.399482 10.075508 -3.439822
v 1.712804 10.075508 -1.782034
v 0.055016 10.075508 -1.095355
v -1.602773 10.075508 -1.782034
v -2.289452 10.075508 -3.439822
v -1.602773 10.075508 -5.097610
v 0.055015 10.075508 -5.784289
v 1.712804 10.075508 -5.097610
v 0.055015 9.995428 -3.439822
v 0.055015 0.556248 1.390872
v -2.220117 0.556248 2.333263
v -3.162508 0.556248 4.608395
v -2.220117 0.556248 6.883527
v 0.055016 0.556248 7.825918
v 2.330148 0.556248 6.883527
v 3.272538 0.556248 4.608395
v 2.330148 0.556248 2.333263
v 0.055015 6.416217 1.390872
v -2.220117 6.416217 2.333263
v -3.162508 6.416217 4.608395
v -2.220117 6.416217 6.883527
v 0.055016 6.416217 7.825918
v 2.330148 6.416217 6.883527
v 3.272538 6.416217 4.608395
v 2.330148 6.416217 2.333263
v 0.055015 0.072950 2.025280
v -1.771523 0.072950 2.781857
v -2.528100 0.072950 4.608395
v -1.771523 0.072950 6.434933
v 0.055016 0.072950 7.191510
v 1.881554 0.072950 6.434933
v 2.638130 0.072950 4.608395
v 1.881554 0.072950 2.781857
v 0.055015 0.072950 2.770709
v -1.244425 0.072950 3.308955
v -1.782671 0.072950 4.608395
v -1.244425 0.072950 5.907835
v 0.055016 0.072950 6.446081
v 1.354456 0.072950 5.907835
v 1.892702 0.072950 4.608395
v 1.354456 0.072950 3.308955
v 0.055015 0.324840 3.112921
v -1.002444 0.324840 3.550935
v -1.440459 0.324840 4.608395
v -1.002444 0.324840 5.665854
v 0.055016 0.324840 6.103868
v 1.112475 0.324840 5.665854
v 1.550489 0.324840 4.608395
v 1.112475 0.324840 3.550935
v 0.055015 0.324840 4.608395
v 2.679083 9.042968 4.608395
v 1.910512 9.042968 6.463891
v 0.055016 9.042968 7.232462
v -1.800481 9.042968 6.463891
v -2.569053 9.042968 4.608395
v -1.800481 9.042968 2.752899
v 0.055015 9.042968 1.984327
v 1.910512 9.042968 2.752899
v 0.055015 5.324874 1.390872
v -2.220117 5.324874 2.333263
v 2.504720 4.979806 2.754719
v 2.504720 4.979806 6.462071
v 3.272644 5.552677 4.608395
v -2.220117 5.324874 6.883527
v 0.055016 5.324874 7.825918
v -3.162508 5.324874 4.608395
v 0.055015 1.925754 1.390872
v 2.504720 2.284138 2.754719
v 2.504720 2.284138 6.462071
v -2.220117 1.925754 6.883527
v -2.220117 1.925754 2.333263
v 3.272538 1.325793 4.608395
v 0.055016 1.925754 7.825918
v -3.162508 1.925754 4.608395
v 2.261316 9.042968 4.608395
v 1.615106 9.042968 6.168484
v 0.055016 9.042968 6.814694
v -1.505075 9.042968 6.168484
v -2.151285 9.042968 4.608395
v -1.505075 9.042968 3.048305
v 0.055015 9.042968 2.402095
v 1.615106 9.042968 3.048305
v 2.261316 9.433187 4.608395
v 1.615106 9.433187 6.168484
v 0.055016 9.433187 6.814694
v -1.505075 9.433187 6.168484
v -2.151285 9.433187 4.608395
v -1.505075 9.433187 3.048305
v 0.055015 9.433187 2.402095
v 1.615106 9.433187 3.048305
v 1.712804 9.995428 2.950607
v 0.055015 9.995428 2.263928
v -1.602773 9.995428 2.950607
v -2.289452 9.995428 4.608395
v -1.602773 9.995428 6.266183
v 0.055016 9.995428 6.952862
v 1.712804 9.995428 6.266183
v 2.399482 9.995428 4.608395
v 2.665258 9.130250 4.608395
v 1.900737 9.130250 6.454116
v 0.055016 9.130250 7.218638
v -1.790705 9.130250 6.454116
v -2.555228 9.130250 4.608395
v -1.790705 9.130250 2.762675
v 0.055015 9.130250 1.998152
v 1.900737 9.130250 2.762675
v 2.665258 10.075508 4.608395
v 1.900737 10.075508 6.454116
v 0.055016 10.075508 7.218638
v -1.790705 10.075508 6.454116
v -2.555228 10.075508 4.608395
v -1.790705 10.075508 2.762675
v 0.055015 10.075508 1.998152
v 1.900737 10.075508 2.762675
v 2.399482 10.075508 4.608395
v 1.712804 10.075508 6.266183
v 0.055016 10.075508 6.952862
v -1.602773 10.075508 6.266183
v -2.289452 10.075508 4.608395
v -1.602773 10.075508 2.950607
v 0.055015 10.075508 2.263928
v 1.712804 10.075508 2.950607
v 1.264457 9.995428 4.608395
v 0.910220 9.995428 5.463599
v -1.154426 9.995428 4.608395
v -0.800189 9.995428 3.753190
v 0.055015 9.995428 5.817836
v -0.800189 9.995428 5.463599
v 0.055015 9.995428 3.398953
v 0.910220 9.995428 3.753190
v 0.055015 9.995428 4.608395
v 2.330148 5.324874 2.333263
v 3.272538 6.021260 4.608395
v 2.330148 5.324874 6.883527
v 2.330148 1.925754 2.333263
v 2.330148 1.925754 6.883527
v 3.265333 1.791270 4.608395
v -2.220117 2.798779 2.333263
v -2.220117 4.451850 2.333263
v 3.267382 2.845428 4.608395
v 3.270595 4.498521 4.608395
v 0.055016 2.798779 7.825918
v 0.055016 4.451850 7.825918
v -3.162508 2.798779 4.608395
v -3.162508 4.451850 4.608395
v 0.055015 4.451850 1.390872
v 0.055015 2.798779 1.390872
v 2.330148 2.798779 2.333263
v 2.330148 4.451850 2.333263
v 2.330148 4.451850 6.883527
v 2.330148 2.798779 6.883527
v -2.220117 4.451850 6.883527
v -2.220117 2.798779 6.883527
v 2.504720 4.458508 2.754719
v 2.504720 2.805438 2.754719
v 2.504720 2.805438 6.462071
v 2.504720 4.458508 6.462071
vn -0.3827 0.0000 -0.9239
vn 0.3827 0.0000 -0.9239
vn 0.9239 0.0000 0.3827
vn -0.3827 0.0000 0.9239
vn -0.9239 0.0000 -0.3827
vn 0.9239 0.0000 -0.3827
vn 0.3827 0.0000 0.9239
vn -0.9239 0.0000 0.3827
vn -0.3447 -0.4343 -0.8322
vn 0.3447 -0.4343 -0.8322
vn 0.8322 -0.4343 0.3447
vn -0.3447 -0.4343 0.8322
vn -0.8322 -0.4343 -0.3447
vn 0.8322 -0.4343 -0.3447
vn 0.3447 -0.4343 0.8322
vn -0.8322 -0.4343 0.3447
vn 0.0000 -1.0000 -0.0000
vn -0.2385 -0.7821 -0.5757
vn 0.5757 -0.7821 -0.2385
vn 0.2385 -0.7821 0.5757
vn -0.2385 -0.7821 0.5757
vn -0.5757 -0.7821 -0.2385
vn 0.2385 -0.7821 -0.5757
vn 0.5757 -0.7821 0.2385
vn -0.5757 -0.7821 0.2385
vn -0.3558 0.3680 0.8590
vn -0.8590 0.3680 -0.3558
vn 0.8590 0.3680 -0.3558
vn 0.3558 0.3680 0.8590
vn -0.8590 0.3680 0.3558
vn -0.3558 0.3680 -0.8590
vn 0.3558 0.3680 -0.8590
vn 0.8590 0.3680 0.3558
vn 0.0000 1.0000 0.0000
vn -0.2435 -0.7715 -0.5878
vn 0.2435 -0.7715 -0.5878
vn 0.5878 -0.7715 0.2435
vn -0.2435 -0.7715 0.5878
vn -0.5878 -0.7715 -0.2435
vn 0.5878 -0.7715 -0.2435
vn 0.2435 -0.7715 0.5878
vn -0.5878 -0.7715 0.2435
vn -0.3746 0.2043 0.9044
vn -0.9044 0.2043 -0.3746
vn 0.9044 0.2043 -0.3746
vn 0.3746 0.2043 0.9044
vn -0.9044 0.2043 0.3746
vn -0.3746 0.2043 -0.9044
vn 0.3746 0.2043 -0.9044
vn 0.9044 0.2043 0.3746
vn 0.9241 -0.0012 0.3821
vn 0.9249 -0.0012 -0.3802
vn 0.9241 -0.0012 -0.3821
vn 0.9249 -0.0012 0.3802
vn 0.9239 0.0001 -0.3827
vn 0.9239 0.0001 0.3827
vn 0.9250 0.0064 0.3799
vn 0.9250 0.0064 -0.3799
vn 0.9245 -0.0009 0.3812
vn 0.9245 -0.0009 -0.3812
usemtl DD9944
s off
f 50//1 51//1 10//1 9//1
f 52//2 50//2 9//2 16//2
f 53//3 54//3 15//3 14//3
f 55//4 56//4 13//4 12//4
f 51//5 57//5 11//5 10//5
f 54//6 52//6 16//6 15//6
f 56//7 53//7 14//7 13//7
f 57//8 55//8 12//8 11//8
f 2//9 1//9 17//9 18//9
f 1//10 8//10 24//10 17//10
f 7//11 6//11 22//11 23//11
f 5//12 4//12 20//12 21//12
f 3//13 2//13 18//13 19//13
f 8//14 7//14 23//14 24//14
f 6//15 5//15 21//15 22//15
f 4//16 3//16 19//16 20//16
f 17//17 24//17 32//17 25//17
f 23//17 22//17 30//17 31//17
f 21//17 20//17 28//17 29//17
f 19//17 18//17 26//17 27//17
f 24//17 23//17 31//17 32//17
f 22//17 21//17 29//17 30//17
f 20//17 19//17 27//17 28//17
f 18//17 17//17 25//17 26//17
f 30//18 29//18 37//18 38//18
f 28//19 27//19 35//19 36//19
f 26//20 25//20 33//20 34//20
f 25//21 32//21 40//21 33//21
f 31//22 30//22 38//22 39//22
f 29//23 28//23 36//23 37//23
f 27//24 26//24 34//24 35//24
f 32//25 31//25 39//25 40//25
f 40//17 39//17 41//17
f 38//17 37//17 41//17
f 36//17 35//17 41//17
f 34//17 33//17 41//17
f 33//17 40//17 41//17
f 39//17 38//17 41//17
f 37//17 36//17 41//17
f 35//17 34//17 41//17
f 12//26 13//26 44//26 45//26
f 10//27 11//27 46//27 47//27
f 15//28 16//28 49//28 42//28
f 13//29 14//29 43//29 44//29
f 11//30 12//30 45//30 46//30
f 9//31 10//31 47//31 48//31
f 16//32 9//32 48//32 49//32
f 14//33 15//33 42//33 43//33
f 1//1 2//1 62//1 58//1
f 8//2 1//2 58//2 59//2
f 6//3 7//3 63//3 60//3
f 4//4 5//4 64//4 61//4
f 2//5 3//5 65//5 62//5
f 7//6 8//6 59//6 63//6
f 5//7 6//7 60//7 64//7
f 3//8 4//8 61//8 65//8
f 48//34 47//34 71//34 72//34
f 46//34 45//34 69//34 70//34
f 44//34 43//34 67//34 68//34
f 42//34 49//34 73//34 66//34
f 47//34 46//34 70//34 71//34
f 45//34 44//34 68//34 69//34
f 43//34 42//34 66//34 67//34
f 49//34 48//34 72//34 73//34
f 69//4 68//4 76//4 77//4
f 67//3 66//3 74//3 75//3
f 73//2 72//2 80//2 81//2
f 72//1 71//1 79//1 80//1
f 70//8 69//8 77//8 78//8
f 68//7 67//7 75//7 76//7
f 66//6 73//6 81//6 74//6
f 71//5 70//5 78//5 79//5
usemtl F44336
f 65//8 61//8 55//8 57//8
f 64//7 60//7 53//7 56//7
f 63//6 59//6 52//6 54//6
f 62//5 65//5 57//5 51//5
f 61//4 64//4 56//4 55//4
f 60//3 63//3 54//3 53//3
f 59//2 58//2 50//2 52//2
f 58//1 62//1 51//1 50//1
f 108//1 107//1 88//1 87//1
f 111//3 110//3 85//3 84//3
f 107//5 106//5 89//5 88//5
f 112//7 111//7 84//7 83//7
f 110//6 109//6 86//6 85//6
f 106//8 113//8 82//8 89//8
f 109//2 108//2 87//2 86//2
f 113//4 112//4 83//4 82//4
f 97//2 96//2 104//2 105//2
f 96//1 95//1 103//1 104//1
f 94//8 93//8 101//8 102//8
f 92//7 91//7 99//7 100//7
f 90//6 97//6 105//6 98//6
f 95//5 94//5 102//5 103//5
f 93//4 92//4 100//4 101//4
f 91//3 90//3 98//3 99//3
f 100//34 99//34 107//34 108//34
f 98//34 105//34 113//34 106//34
f 103//34 102//34 110//34 111//34
f 101//34 100//34 108//34 109//34
f 99//34 98//34 106//34 107//34
f 105//34 104//34 112//34 113//34
f 104//34 103//34 111//34 112//34
f 102//34 101//34 109//34 110//34
f 82//34 83//34 114//34
f 83//34 84//34 114//34
f 87//34 88//34 114//34
f 84//34 85//34 114//34
f 89//34 82//34 114//34
f 88//34 89//34 114//34
f 85//34 86//34 114//34
f 86//34 87//34 114//34
usemtl 673AB7
f 164//1 165//1 124//1 123//1
f 237//2 164//2 123//2 130//2
f 239//3 238//3 129//3 128//3
f 169//4 170//4 127//4 126//4
f 165//5 171//5 125//5 124//5
f 238//6 237//6 130//6 129//6
f 170//7 239//7 128//7 127//7
f 171//8 169//8 126//8 125//8
f 116//35 115//35 131//35 132//35
f 115//36 122//36 138//36 131//36
f 121//37 120//37 136//37 137//37
f 119//38 118//38 134//38 135//38
f 117//39 116//39 132//39 133//39
f 122//40 121//40 137//40 138//40
f 120//41 119//41 135//41 136//41
f 118//42 117//42 133//42 134//42
f 131//17 138//17 146//17 139//17
f 137//17 136//17 144//17 145//17
f 135//17 134//17 142//17 143//17
f 133//17 132//17 140//17 141//17
f 138//17 137//17 145//17 146//17
f 136//17 135//17 143//17 144//17
f 134//17 133//17 141//17 142//17
f 132//17 131//17 139//17 140//17
f 144//18 143//18 151//18 152//18
f 142//19 141//19 149//19 150//19
f 140//20 139//20 147//20 148//20
f 139//21 146//21 154//21 147//21
f 145//22 144//22 152//22 153//22
f 143//23 142//23 150//23 151//23
f 141//24 140//24 148//24 149//24
f 146//25 145//25 153//25 154//25
f 154//17 153//17 155//17
f 152//17 151//17 155//17
f 150//17 149//17 155//17
f 148//17 147//17 155//17
f 147//17 154//17 155//17
f 153//17 152//17 155//17
f 151//17 150//17 155//17
f 149//17 148//17 155//17
f 126//43 127//43 158//43 159//43
f 124//44 125//44 160//44 161//44
f 129//45 130//45 163//45 156//45
f 127//46 128//46 157//46 158//46
f 125//47 126//47 159//47 160//47
f 123//48 124//48 161//48 162//48
f 130//49 123//49 162//49 163//49
f 128//50 129//50 156//50 157//50
f 262//51 246//51 168//51 167//51
f 242//52 173//52 260//52 245//52
f 115//1 116//1 176//1 172//1
f 122//2 115//2 172//2 240//2
f 120//3 121//3 177//3 241//3
f 118//4 119//4 178//4 175//4
f 116//5 117//5 179//5 176//5
f 121//6 122//6 240//6 177//6
f 119//7 120//7 241//7 178//7
f 117//8 118//8 175//8 179//8
f 162//34 161//34 185//34 186//34
f 160//34 159//34 183//34 184//34
f 158//34 157//34 181//34 182//34
f 156//34 163//34 187//34 180//34
f 161//34 160//34 184//34 185//34
f 159//34 158//34 182//34 183//34
f 157//34 156//34 180//34 181//34
f 163//34 162//34 186//34 187//34
f 183//4 182//4 190//4 191//4
f 181//3 180//3 188//3 189//3
f 187//2 186//2 194//2 195//2
f 186//1 185//1 193//1 194//1
f 184//8 183//8 191//8 192//8
f 182//7 181//7 189//7 190//7
f 180//6 187//6 195//6 188//6
f 185//5 184//5 192//5 193//5
f 235//34 234//34 236//34
f 234//34 231//34 236//34
f 232//34 229//34 236//34
f 231//34 230//34 236//34
f 228//34 235//34 236//34
f 229//34 228//34 236//34
f 230//34 233//34 236//34
f 233//34 232//34 236//34
f 246//53 259//53 166//53 168//53
f 174//54 242//54 245//54 261//54
usemtl FFFFFF
f 254//2 251//2 164//2 237//2
f 179//8 175//8 258//8 249//8
f 257//4 248//4 170//4 169//4
f 178//7 241//7 256//7 247//7
f 240//2 172//2 252//2 253//2
f 176//5 179//5 249//5 243//5
f 222//1 221//1 202//1 201//1
f 225//3 224//3 199//3 198//3
f 221//5 220//5 203//5 202//5
f 226//7 225//7 198//7 197//7
f 224//6 223//6 200//6 199//6
f 220//8 227//8 196//8 203//8
f 223//2 222//2 201//2 200//2
f 227//4 226//4 197//4 196//4
f 211//2 210//2 218//2 219//2
f 210//1 209//1 217//1 218//1
f 208//8 207//8 215//8 216//8
f 206//7 205//7 213//7 214//7
f 204//6 211//6 219//6 212//6
f 209//5 208//5 216//5 217//5
f 207//4 206//4 214//4 215//4
f 205//3 204//3 212//3 213//3
f 214//34 213//34 221//34 222//34
f 212//34 219//34 227//34 220//34
f 217//34 216//34 224//34 225//34
f 215//34 214//34 222//34 223//34
f 213//34 212//34 220//34 221//34
f 219//34 218//34 226//34 227//34
f 218//34 217//34 225//34 226//34
f 216//34 215//34 223//34 224//34
f 202//34 203//34 228//34 229//34
f 203//34 196//34 235//34 228//34
f 198//34 199//34 230//34 231//34
f 201//34 202//34 229//34 232//34
f 197//34 198//34 231//34 234//34
f 196//34 197//34 234//34 235//34
f 200//34 201//34 232//34 233//34
f 199//34 200//34 233//34 230//34
f 168//55 166//55 237//55 238//55
f 167//56 168//56 238//56 239//56
f 174//3 261//3 256//3 241//3
f 242//57 174//57 241//57 177//57
f 173//58 242//58 177//58 240//58
f 262//3 167//3 239//3 255//3
f 260//6 173//6 240//6 253//6
f 244//5 250//5 171//5 165//5
f 166//6 259//6 254//6 237//6
f 248//7 255//7 239//7 170//7
f 172//1 176//1 243//1 252//1
f 175//4 178//4 247//4 258//4
f 250//8 257//8 169//8 171//8
f 262//3 255//3 256//3 261//3
f 260//6 253//6 254//6 259//6
f 244//1 251//1 252//1 243//1
f 251//2 254//2 253//2 252//2
f 246//59 262//59 261//59 245//59
f 248//4 257//4 258//4 247//4
f 250//5 244//5 243//5 249//5
f 259//60 246//60 245//60 260//60
f 255//7 248//7 247//7 256//7
f 257//8 250//8 249//8 258//8
f 251//1 244//1 165//1 164//1
