mtllib materials.mtl
v -0.6999574 -0.03134233 0.002709225
v -0.6999574 -0.03134245 -0.694088
v -0.6943732 0.02176696 -0.6921936
v -0.6957772 0.007344186 0.004452929
v -0.003160179 -0.03134233 0.002709284
v 0.0007426739 0.0269199 0.00626196
v 0.002146691 0.04134303 -0.6903846
v -0.003160119 -0.03134245 -0.694088
v -0.00456211 -0.01130396 0.004194483
v -0.00456205 -0.01130408 -0.6926028
v 0.00102213 0.04180539 -0.6907084
v -0.000381887 0.02738255 0.005938187
v 0.6922351 -0.01130396 0.004194543
v 0.696138 0.04695821 0.007747218
v 0.697542 0.06138134 -0.6888993
v 0.6922352 -0.01130408 -0.6926028
v 0.004761994 0.003645599 0.6861724
v 0.004762053 0.00364548 -0.01062484
v -0.0008220971 -0.04946393 -0.008730397
v 0.0005817711 -0.03504092 0.6879161
v -0.6920353 0.003645599 0.6861724
v -0.6959381 -0.05461663 0.689725
v -0.697342 -0.06903994 -0.006921455
v -0.6920352 0.00364548 -0.0106249
v 0.6857877 0.04618341 0.7068933
v 0.6931505 0.05169028 0.01015677
v 0.689092 -0.001571953 0.01158749
v 0.6827149 0.007379413 0.708298
v -0.01067653 0.0259974 0.6993737
v -0.01292241 -0.03237963 0.7024416
v -0.006545365 -0.04133135 0.005731121
v -0.003313661 0.03150433 0.002637222
vn -0.9943906 0.1057701 9.280488E-05
vn 0.9975348 -0.07017309 0.0002788015
vn 1.051815E-07 -1 1.453901E-07
vn -0.02814174 0.999391 0.02063416
vn -0.0005307062 -0.05450545 0.9985133
vn 0.0006733604 0.04439732 -0.9990137
vn -0.9943906 0.1057703 9.280402E-05
vn 0.9975348 -0.0701732 0.0002788024
vn -6.795487E-09 -1 1.43673E-07
vn -0.02814163 0.999391 0.02063416
vn -0.0005307134 -0.05450545 0.9985133
vn 0.0006733664 0.04439733 -0.9990137
vn 0.9943906 -0.1057702 9.29958E-05
vn -0.9975348 0.07017314 0.0002786205
vn -5.076205E-08 1 -1.476095E-07
vn 0.02814168 -0.999391 0.02063445
vn 0.0005305486 0.05450574 0.9985133
vn -0.0006732022 -0.04439762 -0.9990137
vn 0.9969872 -0.07691614 0.01002081
vn -0.9990997 0.04124112 -0.009953461
vn -0.02905241 0.9995491 0.007593319
vn 0.05694487 -0.9982881 0.01334751
vn -0.01160419 0.04660492 0.998846
vn 0.01117323 -0.03650154 -0.9992712
vt -0.0336965 0.05954698
vt 0.0262596 0.09505092
vt 0.0233756 0.09954939
vt -0.03582921 0.06280629
vt 0.03872689 0.06418319
vt 0.0421339 0.06893875
vt -0.0160859 0.1072235
vt -0.02027626 0.1012492
vt -0.0147138 -0.03720758
vt 0.008722031 0.02841274
vt -0.05689828 0.05184857
vt -0.08033411 -0.01377175
vt 0.01533374 -0.0342141
vt 0.08079401 -0.01033489
vt 0.05691481 0.05512539
vt -0.008545465 0.03124618
vt 0.08299406 -0.004530163
vt 0.08630443 -0.002477915
vt 0.05794067 0.06116767
vt 0.05284719 0.05829044
vt -0.08028874 -0.005636224
vt -0.04994389 0.05708899
vt -0.05626422 0.06073616
vt -0.08482929 -0.002819322
vt -0.03859279 0.06751138
vt 0.02136331 0.1030153
vt 0.01847931 0.1075138
vt -0.0407255 0.0707707
vt 0.04249543 0.06993918
vt 0.04590244 0.07469473
vt -0.01231737 0.1129794
vt -0.01650773 0.1070052
vt 0.008814746 0.02823076
vt 0.03225058 0.09385107
vt -0.03336974 0.1172869
vt -0.05680557 0.05166658
vt -0.00847626 0.03115305
vt 0.05698401 0.05503226
vt 0.0331048 0.1204925
vt -0.03235547 0.09661333
vt 0.05471903 0.05903324
vt 0.05802939 0.06108549
vt 0.02966563 0.1247311
vt 0.02457215 0.1218539
vt -0.05181292 0.05783749
vt -0.02146808 0.1205627
vt -0.0277884 0.1242099
vt -0.05635349 0.06065439
vt 0.09808531 0.03410751
vt 0.03813683 0.06962432
vt 0.03557783 0.06493334
vt 0.09625194 0.03067089
vt -0.09586325 0.02675628
vt -0.09306138 0.02162086
vt -0.03327618 0.05741181
vt -0.03683504 0.06378241
vt -0.07335307 0.006171454
vt -0.04991724 -0.05944887
vt 0.01570307 -0.03601303
vt -0.007732755 0.02960728
vt 0.07534399 0.008114536
vt 0.009368086 0.03052979
vt -0.01304716 -0.03544613
vt 0.05292875 -0.05786138
vt 0.05058987 0.06053411
vt 0.04734473 0.05838019
vt 0.07766838 -0.004355284
vt 0.0826702 -0.001321502
vt -0.05412049 0.06217654
vt -0.08603546 0.0002354658
vt -0.079809 -0.003569718
vt -0.04965232 0.05924617
vt 0.1048423 0.03770413
vt 0.04640905 0.07566225
vt 0.04365882 0.07108076
vt 0.1028688 0.03434601
vt -0.1011858 0.02791722
vt -0.09816001 0.0229105
vt -0.04001299 0.06130565
vt -0.04384961 0.06751294
vt -0.09833355 0.07210751
vt -0.07427519 0.006712868
vt -0.00888055 0.03077123
vt -0.03293891 0.09616587
vt 0.09955592 0.07427842
vt 0.03381772 0.09738149
vt 0.01071465 0.03164326
vt 0.07645287 0.008540208
vt 0.02306371 0.1239275
vt 0.01975784 0.121868
vt 0.04826076 0.0582846
vt 0.05334793 0.06117296
vt -0.02684066 0.1255426
vt -0.0569458 0.06270195
vt -0.05061159 0.05907894
vt -0.02228938 0.122743
o group1059746940
g mesh1059746940
usemtl mat23
f 4/4/1 3/3/1 2/2/1 1/1/1
f 8/8/2 7/7/2 6/6/2 5/5/2
f 2/12/3 8/11/3 5/10/3 1/9/3
f 6/16/4 7/15/4 3/14/4 4/13/4
f 5/20/5 6/19/5 4/18/5 1/17/5
f 3/24/6 7/23/6 8/22/6 2/21/6
f 28/76/19 27/75/19 26/74/19 25/73/19
f 32/80/20 31/79/20 30/78/20 29/77/20
f 26/84/21 32/83/21 29/82/21 25/81/21
f 30/88/22 31/87/22 27/86/22 28/85/22
f 29/92/23 30/91/23 28/90/23 25/89/23
f 27/96/24 31/95/24 32/94/24 26/93/24
usemtl mat21
f 12/28/7 11/27/7 10/26/7 9/25/7
f 16/32/8 15/31/8 14/30/8 13/29/8
f 10/36/9 16/35/9 13/34/9 9/33/9
f 14/40/10 15/39/10 11/38/10 12/37/10
f 13/44/11 14/43/11 12/42/11 9/41/11
f 11/48/12 15/47/12 16/46/12 10/45/12
f 20/52/13 19/51/13 18/50/13 17/49/13
f 24/56/14 23/55/14 22/54/14 21/53/14
f 18/60/15 24/59/15 21/58/15 17/57/15
f 22/64/16 23/63/16 19/62/16 20/61/16
f 21/68/17 22/67/17 20/66/17 17/65/17
f 19/72/18 23/71/18 24/70/18 18/69/18
