{
	"asset": {
		"generator": "Blocks 4.0.1RC0 SVR",
		"version": "1.1",
		"copyright": "Unknown"
	},
	"buffers": {
		"model": {
			"byteLength": 857840,
			"type": "arraybuffer",
			"uri": "model.bin"
		}
	},
	"accessors": {
		"accessor_position_m0-PolyPaper22_-313594": {
			"bufferView": "vec3BufferView",
			"byteOffset": 0,
			"byteStride": 12,
			"componentType": 5126,
			"count": 7940,
			"max": [ 0.1836981, 2.111043, 1.078541 ],
			"min": [ -0.4688189, 0.8185251, 0.4696178 ],
			"type": "VEC3"
		 },
		"accessor_normal_m0-PolyPaper22_-313594": {
			"bufferView": "vec3BufferView",
			"byteOffset": 95280,
			"byteStride": 12,
			"componentType": 5126,
			"count": 7940,
			"max": [ 0.9999724, 1, 0.9993359 ],
			"min": [ -0.9999724, -1, -0.9993359 ],
			"type": "VEC3"
		 },
		"accessor_color_m0-PolyPaper22_-313594": {
			"bufferView": "vec4BufferView",
			"byteOffset": 0,
			"byteStride": 16,
			"componentType": 5126,
			"count": 7940,
			"max": [ 1, 1, 1, 1 ],
			"min": [ 0, 0.1019608, 0, 1 ],
			"type": "VEC4"
		 },
		"accessor_indices_0_m0-PolyPaper22_-313594": {
			"bufferView": "ushortBufferView",
			"byteOffset": 0,
			"byteStride": 0,
			"componentType": 5123,
			"count": 13926,
			"max": [ 7939 ],
			"min": [ 0 ],
			"type": "SCALAR"
		 },
		"accessor_position_m1-PolyGlass24_-313600": {
			"bufferView": "vec3BufferView",
			"byteOffset": 190560,
			"byteStride": 12,
			"componentType": 5126,
			"count": 8544,
			"max": [ 0.1012403, 2.011093, 0.734858 ],
			"min": [ -0.3553714, 1.127893, 0.5538296 ],
			"type": "VEC3"
		 },
		"accessor_normal_m1-PolyGlass24_-313600": {
			"bufferView": "vec3BufferView",
			"byteOffset": 293088,
			"byteStride": 12,
			"componentType": 5126,
			"count": 8544,
			"max": [ 0.9999724, 0.9962112, 0.9942886 ],
			"min": [ -0.9999724, -0.9962118, -0.9942883 ],
			"type": "VEC3"
		 },
		"accessor_color_m1-PolyGlass24_-313600": {
			"bufferView": "vec4BufferView",
			"byteOffset": 127040,
			"byteStride": 16,
			"componentType": 5126,
			"count": 8544,
			"max": [ 1, 1, 1, 1 ],
			"min": [ 1, 1, 1, 1 ],
			"type": "VEC4"
		 },
		"accessor_indices_0_m1-PolyGlass24_-313600": {
			"bufferView": "ushortBufferView",
			"byteOffset": 27852,
			"byteStride": 0,
			"componentType": 5123,
			"count": 15114,
			"max": [ 8543 ],
			"min": [ 0 ],
			"type": "SCALAR"
		 },
		"accessor_position_m2-PolyPaper23_-313606": {
			"bufferView": "vec3BufferView",
			"byteOffset": 395616,
			"byteStride": 12,
			"componentType": 5126,
			"count": 1692,
			"max": [ 0.09428251, 1.343483, 0.7113817 ],
			"min": [ -0.3774052, 1.135157, 0.5528237 ],
			"type": "VEC3"
		 },
		"accessor_normal_m2-PolyPaper23_-313606": {
			"bufferView": "vec3BufferView",
			"byteOffset": 415920,
			"byteStride": 12,
			"componentType": 5126,
			"count": 1692,
			"max": [ 0.9996784, 0.9961897, 0.9962454 ],
			"min": [ -0.9996784, -0.9961896, -0.9962456 ],
			"type": "VEC3"
		 },
		"accessor_color_m2-PolyPaper23_-313606": {
			"bufferView": "vec4BufferView",
			"byteOffset": 263744,
			"byteStride": 16,
			"componentType": 5126,
			"count": 1692,
			"max": [ 1, 0.9215686, 0.2313726, 1 ],
			"min": [ 0.1019608, 0.1019608, 0.1019608, 1 ],
			"type": "VEC4"
		 },
		"accessor_indices_0_m2-PolyPaper23_-313606": {
			"bufferView": "ushortBufferView",
			"byteOffset": 58080,
			"byteStride": 0,
			"componentType": 5123,
			"count": 2934,
			"max": [ 1691 ],
			"min": [ 0 ],
			"type": "SCALAR"
		 },
		"accessor_position_m3-PolyGlass24_-313612": {
			"bufferView": "vec3BufferView",
			"byteOffset": 436224,
			"byteStride": 12,
			"componentType": 5126,
			"count": 1536,
			"max": [ -0.09349844, 1.32622, 0.7079129 ],
			"min": [ -0.3729157, 1.134832, 0.5486196 ],
			"type": "VEC3"
		 },
		"accessor_normal_m3-PolyGlass24_-313612": {
			"bufferView": "vec3BufferView",
			"byteOffset": 454656,
			"byteStride": 12,
			"componentType": 5126,
			"count": 1536,
			"max": [ 0.9877713, 0.9921891, 0.9801621 ],
			"min": [ -0.9877713, -0.9921905, -0.9801619 ],
			"type": "VEC3"
		 },
		"accessor_color_m3-PolyGlass24_-313612": {
			"bufferView": "vec4BufferView",
			"byteOffset": 290816,
			"byteStride": 16,
			"componentType": 5126,
			"count": 1536,
			"max": [ 1, 1, 1, 1 ],
			"min": [ 1, 1, 1, 1 ],
			"type": "VEC4"
		 },
		"accessor_indices_0_m3-PolyGlass24_-313612": {
			"bufferView": "ushortBufferView",
			"byteOffset": 63948,
			"byteStride": 0,
			"componentType": 5123,
			"count": 2706,
			"max": [ 1535 ],
			"min": [ 0 ],
			"type": "SCALAR"
		 }
	},
	"bufferViews": {
		"ushortBufferView": {
			"buffer": "model",
			"byteLength": 69360,
			"byteOffset": 0,
			"target": 34963
		},
		"vec3BufferView": {
			"buffer": "model",
			"byteLength": 473088,
			"byteOffset": 69360,
			"target": 34962
		},
		"vec4BufferView": {
			"buffer": "model",
			"byteLength": 315392,
			"byteOffset": 542448,
			"target": 34962
		}
	},
	"meshes": {
		"mesh_m0-PolyPaper22_-313594": {
			"name": "mesh_m0-PolyPaper22_-313594",
			"primitives": [
				{
					"attributes": {
						"POSITION": "accessor_position_m0-PolyPaper22_-313594",
						"NORMAL": "accessor_normal_m0-PolyPaper22_-313594",
						"COLOR": "accessor_color_m0-PolyPaper22_-313594"
					},
					"indices": "accessor_indices_0_m0-PolyPaper22_-313594",
					"material": "material_mat22",
					"mode": 4
				}
			]
		},
		"mesh_m1-PolyGlass24_-313600": {
			"name": "mesh_m1-PolyGlass24_-313600",
			"primitives": [
				{
					"attributes": {
						"POSITION": "accessor_position_m1-PolyGlass24_-313600",
						"NORMAL": "accessor_normal_m1-PolyGlass24_-313600",
						"COLOR": "accessor_color_m1-PolyGlass24_-313600"
					},
					"indices": "accessor_indices_0_m1-PolyGlass24_-313600",
					"material": "material_mat24",
					"mode": 4
				}
			]
		},
		"mesh_m2-PolyPaper23_-313606": {
			"name": "mesh_m2-PolyPaper23_-313606",
			"primitives": [
				{
					"attributes": {
						"POSITION": "accessor_position_m2-PolyPaper23_-313606",
						"NORMAL": "accessor_normal_m2-PolyPaper23_-313606",
						"COLOR": "accessor_color_m2-PolyPaper23_-313606"
					},
					"indices": "accessor_indices_0_m2-PolyPaper23_-313606",
					"material": "material_mat23",
					"mode": 4
				}
			]
		},
		"mesh_m3-PolyGlass24_-313612": {
			"name": "mesh_m3-PolyGlass24_-313612",
			"primitives": [
				{
					"attributes": {
						"POSITION": "accessor_position_m3-PolyGlass24_-313612",
						"NORMAL": "accessor_normal_m3-PolyGlass24_-313612",
						"COLOR": "accessor_color_m3-PolyGlass24_-313612"
					},
					"indices": "accessor_indices_0_m3-PolyGlass24_-313612",
					"material": "material_mat24",
					"mode": 4
				}
			]
		}
	},
	"shaders": {
		"vertex_mat22": {
			"type": 35633,
			"uri": "https://vr.google.com/shaders/w/vs.glsl"
		},
		"fragment_mat22": {
			"type": 35632,
			"uri": "https://vr.google.com/shaders/w/fs.glsl"
		},
		"vertex_mat24": {
			"type": 35633,
			"uri": "https://vr.google.com/shaders/w/glassVS.glsl"
		},
		"fragment_mat24": {
			"type": 35632,
			"uri": "https://vr.google.com/shaders/w/glassFS.glsl"
		},
		"vertex_mat23": {
			"type": 35633,
			"uri": "https://vr.google.com/shaders/w/vs.glsl"
		},
		"fragment_mat23": {
			"type": 35632,
			"uri": "https://vr.google.com/shaders/w/fs.glsl"
		}
	},
	"programs": {
		"program_mat22": {
			"attributes": [
				"a_position",
				"a_normal",
				"a_color"				
			],
			"vertexShader": "vertex_mat22",
			"fragmentShader": "fragment_mat22"
		},
		"program_mat24": {
			"attributes": [
				"a_position",
				"a_normal",
				"a_color"				
			],
			"vertexShader": "vertex_mat24",
			"fragmentShader": "fragment_mat24"
		},
		"program_mat23": {
			"attributes": [
				"a_position",
				"a_normal",
				"a_color"				
			],
			"vertexShader": "vertex_mat23",
			"fragmentShader": "fragment_mat23"
		}
	},
	"techniques": {
		"technique_mat22": {
			"program": "program_mat22",
			"extras": {"gvrss" : "https://vr.google.com/shaders/w/gvrss/paper.json"},
			"parameters": {
				"position": {
					"type": 35665,
					"semantic": "POSITION"
				},
				"normal": {
					"type": 35665,
					"semantic": "NORMAL"
				},
				"color": {
					"type": 35666,
					"semantic": "COLOR"
				},
				"modelViewMatrix": {
					"type": 35676,
					"semantic": "MODELVIEW"
				},
				"projectionMatrix": {
					"type": 35676,
					"semantic": "PROJECTION"
				},
				"normalMatrix": {
					"type": 35675,
					"semantic": "MODELVIEWINVERSETRANSPOSE"
				},
				"color": {
					"type": 35666
				},
				"roughness": {
					"type": 5126
				},
				"metallic": {
					"type": 5126
				},
				"light0Pos": {
					"type": 35666
				},
				"light0Color": {
					"type": 35666
				},
				"light1Pos": {
					"type": 35666
				},
				"light1Color": {
					"type": 35666
				}				
			},
			"attributes": {
				"a_position": "position",
				"a_normal": "normal",
				"a_color": "color"				
			},
			"uniforms": {
				"u_modelViewMatrix": "modelViewMatrix",
				"u_projectionMatrix": "projectionMatrix",
				"u_normalMatrix": "normalMatrix",
				"u_color": "color",
				"u_roughness": "roughness",
				"u_metallic": "metallic",
				"u_light0Pos": "light0Pos",
				"u_light0Color": "light0Color",
				"u_light1Pos": "light1Pos",
				"u_light1Color": "light1Color"				
			},
			"states": {
				"enable": [
					2929,
					2884
				],
				"functions": {
					"cullFace": [1029]
				}
			}
		},
		"technique_mat24": {
			"program": "program_mat24",
			"extras": {"gvrss" : "https://vr.google.com/shaders/w/gvrss/glass.json"},
			"parameters": {
				"position": {
					"type": 35665,
					"semantic": "POSITION"
				},
				"normal": {
					"type": 35665,
					"semantic": "NORMAL"
				},
				"color": {
					"type": 35666,
					"semantic": "COLOR"
				},
				"modelViewMatrix": {
					"type": 35676,
					"semantic": "MODELVIEW"
				},
				"projectionMatrix": {
					"type": 35676,
					"semantic": "PROJECTION"
				},
				"normalMatrix": {
					"type": 35675,
					"semantic": "MODELVIEWINVERSETRANSPOSE"
				},
				"color": {
					"type": 35666
				},
				"roughness": {
					"type": 5126
				},
				"metallic": {
					"type": 5126
				},
				"light0Pos": {
					"type": 35666
				},
				"light0Color": {
					"type": 35666
				},
				"light1Pos": {
					"type": 35666
				},
				"light1Color": {
					"type": 35666
				}				
			},
			"attributes": {
				"a_position": "position",
				"a_normal": "normal",
				"a_color": "color"				
			},
			"uniforms": {
				"u_modelViewMatrix": "modelViewMatrix",
				"u_projectionMatrix": "projectionMatrix",
				"u_normalMatrix": "normalMatrix",
				"u_color": "color",
				"u_roughness": "roughness",
				"u_metallic": "metallic",
				"u_light0Pos": "light0Pos",
				"u_light0Color": "light0Color",
				"u_light1Pos": "light1Pos",
				"u_light1Color": "light1Color"				
			},
			"states": {
				"enable": [
					2929,
					3042
				],
				"functions": {
					"blendFuncSeparate": [775, 774, 773, 772],
					"depthMask": [true]
				}
			}
		},
		"technique_mat23": {
			"program": "program_mat23",
			"extras": {"gvrss" : "https://vr.google.com/shaders/w/gvrss/paper.json"},
			"parameters": {
				"position": {
					"type": 35665,
					"semantic": "POSITION"
				},
				"normal": {
					"type": 35665,
					"semantic": "NORMAL"
				},
				"color": {
					"type": 35666,
					"semantic": "COLOR"
				},
				"modelViewMatrix": {
					"type": 35676,
					"semantic": "MODELVIEW"
				},
				"projectionMatrix": {
					"type": 35676,
					"semantic": "PROJECTION"
				},
				"normalMatrix": {
					"type": 35675,
					"semantic": "MODELVIEWINVERSETRANSPOSE"
				},
				"color": {
					"type": 35666
				},
				"roughness": {
					"type": 5126
				},
				"metallic": {
					"type": 5126
				},
				"light0Pos": {
					"type": 35666
				},
				"light0Color": {
					"type": 35666
				},
				"light1Pos": {
					"type": 35666
				},
				"light1Color": {
					"type": 35666
				}				
			},
			"attributes": {
				"a_position": "position",
				"a_normal": "normal",
				"a_color": "color"				
			},
			"uniforms": {
				"u_modelViewMatrix": "modelViewMatrix",
				"u_projectionMatrix": "projectionMatrix",
				"u_normalMatrix": "normalMatrix",
				"u_color": "color",
				"u_roughness": "roughness",
				"u_metallic": "metallic",
				"u_light0Pos": "light0Pos",
				"u_light0Color": "light0Color",
				"u_light1Pos": "light1Pos",
				"u_light1Color": "light1Color"				
			},
			"states": {
				"enable": [
					2929,
					2884
				],
				"functions": {
					"cullFace": [1029]
				}
			}
		}
	},
	"materials": {
		"material_mat22": {
			"technique": "technique_mat22",
			"values": {
				"color": [0.6196079, 0.6196079, 0.6196079, 1],
				"roughness": 1,
				"metallic": 0,
				"light0Pos": [-0.02, 4.11, -0.54, 0],
				"light0Color": [1.28, 1.232075, 1.101177, 0],
				"light1Pos": [0.02, -4.11, 0.54, 0],
				"light1Color": [0.2941177, 0.2953672, 0.32, 0]				
			},
			"name": "material_mat22"
		},
		"material_mat24": {
			"technique": "technique_mat24",
			"values": {
				"color": [0.8392157, 0.8392157, 0.8392157, 0.2509804],
				"roughness": 0,
				"metallic": 0,
				"light0Pos": [-0.02, 4.11, -0.54, 0],
				"light0Color": [1.28, 1.232075, 1.101177, 0],
				"light1Pos": [0.02, -4.11, 0.54, 0],
				"light1Color": [0.2941177, 0.2953672, 0.32, 0]				
			},
			"name": "material_mat24"
		},
		"material_mat23": {
			"technique": "technique_mat23",
			"values": {
				"color": [0.1019608, 0.1019608, 0.1019608, 1],
				"roughness": 1,
				"metallic": 0,
				"light0Pos": [-0.02, 4.11, -0.54, 0],
				"light0Color": [1.28, 1.232075, 1.101177, 0],
				"light1Pos": [0.02, -4.11, 0.54, 0],
				"light1Color": [0.2941177, 0.2953672, 0.32, 0]				
			},
			"name": "material_mat23"
		}
	},
	"nodes": {
		"node_MeshObject681908224-PolyPaper22": {
			"name": "node_MeshObject681908224-PolyPaper22",
			"meshes": [
				"mesh_m0-PolyPaper22_-313594"
			],
			"matrix": [1, 0, 0, 0, 0, 1, 0, 0, 0, 0, 1, 0, 0, 0, 0, 1]
		},
		"node_MeshObject1247917056-PolyGlass24": {
			"name": "node_MeshObject1247917056-PolyGlass24",
			"meshes": [
				"mesh_m1-PolyGlass24_-313600"
			],
			"matrix": [1, 0, 0, 0, 0, 1, 0, 0, 0, 0, 1, 0, 0, 0, 0, 1]
		},
		"node_MeshObject103758848-PolyPaper23": {
			"name": "node_MeshObject103758848-PolyPaper23",
			"meshes": [
				"mesh_m2-PolyPaper23_-313606"
			],
			"matrix": [1, 0, 0, 0, 0, 1, 0, 0, 0, 0, 1, 0, 0, 0, 0, 1]
		},
		"node_MeshObject675837952-PolyGlass24": {
			"name": "node_MeshObject675837952-PolyGlass24",
			"meshes": [
				"mesh_m3-PolyGlass24_-313612"
			],
			"matrix": [1, 0, 0, 0, 0, 1, 0, 0, 0, 0, 1, 0, 0, 0, 0, 1]
		}
	},
	"scene": "defaultScene",
	"scenes": {
		"defaultScene": {
			"nodes": [
				"node_MeshObject681908224-PolyPaper22",
				"node_MeshObject1247917056-PolyGlass24",
				"node_MeshObject103758848-PolyPaper23",
				"node_MeshObject675837952-PolyGlass24"
			],
			"extras": {

			}
		}
	}
}